<svg width="30" height="30" viewBox="0 0 30 30" fill="none" xmlns="http://www.w3.org/2000/svg">
<rect x="0.37793" y="0.644531" width="29.2689" height="29.2689" fill="white"/>
<path d="M22.2746 22.7314H18.7256L15.9326 17.0824H12.9926V22.7314H9.92656V7.82144H16.6886C18.2706 7.82144 19.4956 8.24844 20.3636 9.10244C21.2316 9.95644 21.6656 11.0834 21.6656 12.4834C21.6656 13.4914 21.4346 14.3664 20.9726 15.1084C20.5246 15.8504 19.8736 16.3964 19.0196 16.7464L22.2746 22.7314ZM18.1166 13.8064C18.4386 13.4844 18.5996 13.0434 18.5996 12.4834C18.5996 11.9234 18.4316 11.4754 18.0956 11.1394C17.7736 10.8034 17.3046 10.6354 16.6886 10.6354H12.9926V14.2684H16.6886C17.3186 14.2684 17.7946 14.1144 18.1166 13.8064Z" fill="black"/>
</svg>
