<svg width="42" height="42" viewBox="0 0 42 42" fill="none" xmlns="http://www.w3.org/2000/svg">
<rect x="0.636719" y="0.630371" width="40.4946" height="40.4946" fill="#151515"/>
<path d="M29.9088 30.1616H25.3458L21.7548 22.8986H17.9748V30.1616H14.0328V10.9916H22.7268C24.7608 10.9916 26.3358 11.5406 27.4518 12.6386C28.5678 13.7366 29.1258 15.1856 29.1258 16.9856C29.1258 18.2816 28.8288 19.4066 28.2348 20.3606C27.6588 21.3146 26.8218 22.0166 25.7238 22.4666L29.9088 30.1616ZM24.5628 18.6866C24.9768 18.2726 25.1838 17.7056 25.1838 16.9856C25.1838 16.2656 24.9678 15.6896 24.5358 15.2576C24.1218 14.8256 23.5188 14.6096 22.7268 14.6096H17.9748V19.2806H22.7268C23.5368 19.2806 24.1488 19.0826 24.5628 18.6866Z" fill="white"/>
</svg>
