<svg width="80" height="80" viewBox="0 0 80 80" fill="none" xmlns="http://www.w3.org/2000/svg">
<rect x="3.49316" y="3.10449" width="73.6992" height="73.6992" fill="#151515" stroke="white" stroke-width="5"/>
<path d="M16.5428 53.9541V25.5541H28.9028C30.1828 25.5541 31.3561 25.8208 32.4228 26.3541C33.4894 26.8874 34.4094 27.5941 35.1828 28.4741C35.9828 29.3541 36.5961 30.3408 37.0228 31.4341C37.4761 32.5274 37.7028 33.6474 37.7028 34.7941C37.7028 36.0741 37.4628 37.2874 36.9828 38.4341C36.5294 39.5541 35.8894 40.5274 35.0628 41.3541C34.2361 42.1808 33.2628 42.7808 32.1428 43.1541L38.8228 53.9541H33.7828L27.6228 44.0741H21.0228V53.9541H16.5428ZM21.0228 40.1141H28.8628C29.6894 40.1141 30.4228 39.8741 31.0628 39.3941C31.7028 38.8874 32.2094 38.2341 32.5828 37.4341C32.9561 36.6341 33.1428 35.7541 33.1428 34.7941C33.1428 33.8074 32.9294 32.9274 32.5028 32.1541C32.0761 31.3541 31.5161 30.7141 30.8228 30.2341C30.1294 29.7541 29.3961 29.5141 28.6228 29.5141H21.0228V40.1141ZM62.7881 32.2341C62.4414 31.8341 61.8681 31.4208 61.0681 30.9941C60.2948 30.5408 59.3881 30.1541 58.3481 29.8341C57.3081 29.5141 56.2281 29.3541 55.1081 29.3541C53.2148 29.3541 51.8148 29.7008 50.9081 30.3941C50.0281 31.0874 49.5881 32.0474 49.5881 33.2741C49.5881 34.1808 49.8414 34.9008 50.3481 35.4341C50.8548 35.9408 51.6281 36.3808 52.6681 36.7541C53.7081 37.1008 55.0148 37.4608 56.5881 37.8341C58.5081 38.2874 60.1614 38.8341 61.5481 39.4741C62.9614 40.0874 64.0414 40.9141 64.7881 41.9541C65.5614 42.9941 65.9481 44.3674 65.9481 46.0741C65.9481 48.0208 65.4814 49.5941 64.5481 50.7941C63.6148 51.9941 62.3481 52.8741 60.7481 53.4341C59.1748 53.9674 57.4414 54.2341 55.5481 54.2341C53.3881 54.2341 51.2948 53.9008 49.2681 53.2341C47.2414 52.5674 45.4281 51.6208 43.8281 50.3941L45.8681 46.5541C46.3214 47.0074 47.0414 47.5274 48.0281 48.1141C49.0148 48.6741 50.1614 49.1674 51.4681 49.5941C52.8014 49.9941 54.1881 50.1941 55.6281 50.1941C57.3881 50.1941 58.7481 49.8874 59.7081 49.2741C60.6681 48.6341 61.1481 47.7274 61.1481 46.5541C61.1481 45.5941 60.8281 44.8341 60.1881 44.2741C59.5748 43.6874 58.6814 43.2074 57.5081 42.8341C56.3614 42.4341 54.9748 42.0208 53.3481 41.5941C51.4814 41.1141 49.9214 40.5674 48.6681 39.9541C47.4148 39.3408 46.4681 38.5674 45.8281 37.6341C45.2148 36.7008 44.9081 35.4874 44.9081 33.9941C44.9081 32.1274 45.3614 30.5541 46.2681 29.2741C47.1748 27.9674 48.4014 26.9941 49.9481 26.3541C51.5214 25.6874 53.2814 25.3541 55.2281 25.3541C57.1481 25.3541 58.9214 25.6608 60.5481 26.2741C62.1748 26.8874 63.6014 27.6474 64.8281 28.5541L62.7881 32.2341Z" fill="white"/>
</svg>
