<svg width="634" height="611" viewBox="0 0 634 611" fill="none" xmlns="http://www.w3.org/2000/svg">
<path fill-rule="evenodd" clip-rule="evenodd" d="M513.64 104.544C509.616 104.222 504.038 104.534 500.441 105.283C498.257 105.738 301.682 164.437 295.07 166.609C293.614 167.088 293.066 164.818 280.961 108.012C274.034 75.5101 268.006 47.9799 267.565 46.8344C264.851 39.7924 254.683 36.7112 247.996 40.9055C243.886 43.4833 244.791 40.5974 223.348 119.573L203.105 194.132L136.513 214.094C99.8863 225.072 69.1017 234.66 68.1024 235.4C61.832 240.042 61.2464 249.01 66.8084 255.231C68.2968 256.895 76.5844 265.733 85.225 274.869C93.8662 284.006 100.885 291.67 100.824 291.901C100.762 292.132 89.8496 295.628 76.573 299.669C47.1934 308.614 45.3967 309.487 43.7196 315.634C41.7374 322.9 42.8795 324.659 64.2009 347.17L81.7418 365.69L79.3546 366.502C78.0416 366.949 66.4336 370.531 53.5601 374.462C40.6333 378.411 29.4288 382.224 28.5354 382.98C24.3887 386.49 22.9237 390.671 23.9971 395.937C24.869 400.215 23.9004 399.049 45.8862 422.292C54.5351 431.436 61.4713 439.127 61.3001 439.382C61.1288 439.638 49.8734 443.247 36.2875 447.401C16.5088 453.449 11.0806 455.374 9.04934 457.063C3.1846 461.937 3.10748 470.967 8.88517 476.271L11.7933 478.94L188.321 525.891L364.849 572.842L368.474 571.749C370.793 571.05 372.939 569.791 374.432 568.256L376.766 565.857L405.696 458.861C430.734 366.266 434.783 351.783 435.781 351.243C436.415 350.9 466.417 341.668 502.451 330.727C538.486 319.786 569.222 310.236 570.755 309.503C589.105 300.738 599.448 279.997 595.172 260.535C594.427 257.144 592.05 246.36 586.878 230.964L477.723 263.044C474.045 263.877 465.176 263.677 461.591 254.586C458.616 247.045 462.765 238.962 468.952 236.574C468.367 235.013 576.414 203.412 576.414 203.412C564.389 168.548 550.694 130.271 548.621 126.776C541.365 114.544 527.357 105.642 513.64 104.544ZM292.946 228.91C281.858 229.828 274.775 239.65 278.201 249.356C283.496 264.36 304.855 264 308.942 248.836C311.702 238.595 303.243 228.057 292.946 228.91ZM126.318 482.17C126.165 482.258 112.579 478.658 96.126 474.168L66.2109 466.006L79.6691 461.929C94.6249 457.399 96.9038 456.071 98.8926 450.732C101.735 443.102 100.926 441.78 79.6937 419.38C69.8088 408.951 61.7606 400.248 61.8092 400.041C61.8578 399.834 72.7569 396.368 86.0298 392.341C115.909 383.273 117.239 382.605 119.07 375.745C120.941 368.736 120.408 367.926 99.0283 345.269C89.3335 334.995 81.6042 326.397 81.8529 326.163C82.1011 325.928 93.5981 322.29 107.403 318.078C134.932 309.678 136.082 309.128 138.247 303.315C141.086 295.694 140.311 294.429 119.064 271.993C109.173 261.549 101.2 252.813 101.347 252.581C101.494 252.348 122.683 245.722 148.434 237.854L195.252 223.548L160.923 352.779C142.042 423.856 126.47 482.082 126.318 482.17ZM202.937 349.363C196.962 350.562 194.723 358.543 199.215 362.632C201.505 364.717 206.023 365.391 208.56 364.025C216.695 359.647 212.05 347.535 202.937 349.363ZM211.945 383.724C204.734 383.225 201.811 394.696 208.196 398.441C216.81 403.494 224.836 391.613 216.929 385.515C215.058 384.072 214.6 383.908 211.945 383.724ZM242.238 392.3C232.515 393.771 233.677 407.956 243.514 407.87C250.575 407.808 254.001 398.693 248.668 394.162C246.393 392.23 245.129 391.864 242.238 392.3ZM186.117 410.627C179.612 412.196 178.687 421.819 184.719 425.17C190.067 428.14 197.19 423.463 196.384 417.51C195.718 412.593 191.021 409.444 186.117 410.627ZM217.054 419.015C211.483 420.705 209.837 427.608 213.971 431.94C219.404 437.634 228.863 432.814 227.441 425.076C226.635 420.697 221.462 417.678 217.054 419.015ZM247.48 427.686C241.893 430.31 241.185 437.921 246.221 441.219C252.417 445.278 260.095 440.11 258.522 432.94C257.542 428.473 251.711 425.699 247.48 427.686ZM278.274 436.073C270.272 440.125 274.642 452.433 283.502 450.797C286.641 450.217 288.664 448.172 289.613 444.617C291.251 438.482 284.123 433.111 278.274 436.073ZM310.373 444.015C301.663 446.588 304.609 459.883 313.728 459.158C317.434 458.864 319.873 456.827 320.835 453.224C322.371 447.469 316.419 442.231 310.373 444.015ZM193.906 445.194C188.054 446.609 186.002 454.472 190.432 458.506C195.042 462.702 202.072 460.702 203.59 454.762C205.042 449.075 199.697 443.793 193.906 445.194ZM225.222 453.59C221.02 454.433 218.352 458.772 219.321 463.186C220.715 469.54 230.115 471.026 233.75 465.466C237.618 459.55 232.316 452.168 225.222 453.59ZM256.961 461.659C248.638 462.761 248.037 474.897 256.198 477.075C259.806 478.038 263.976 476.213 265.514 472.996C268.116 467.557 263.058 460.851 256.961 461.659ZM286.935 470.347C279.753 472.568 279.447 482.222 286.472 484.972C291.373 486.891 295.858 484.637 297.209 479.575C298.66 474.14 292.517 468.622 286.935 470.347ZM318.339 478.459C314.455 479.395 311.589 484.67 312.863 488.533C315.239 495.735 326.064 495.782 327.981 488.599C329.663 482.299 324.58 476.954 318.339 478.459ZM350.459 486.63C347.879 486.951 344.609 489.729 343.963 492.149C341.575 501.093 353.779 506.233 358.642 498.332C361.934 492.983 356.929 485.824 350.459 486.63ZM171.033 471.534C165.967 472.375 163.064 477.08 164.704 481.794C166.908 488.127 174.965 488.989 179.031 483.327C182.704 478.211 177.453 470.469 171.033 471.534ZM201.635 479.929C200.126 480.257 198.393 481.312 197.307 482.563C191.509 489.242 199.335 498.719 207.183 494.524C215.164 490.257 210.505 478.001 201.635 479.929ZM234.385 487.989C230.15 488.01 226.254 491.909 226.484 495.895C226.987 504.618 238.705 506.882 241.724 498.839C243.7 493.578 239.901 487.962 234.385 487.989ZM264.524 496.528C257.171 497.64 255.129 507.227 261.455 510.938C270.068 515.99 278.095 504.11 270.188 498.011C267.932 496.272 267.305 496.107 264.524 496.528ZM295.403 504.781C290.621 505.562 287.685 510.509 289.269 515.118C292.231 523.736 305.313 521.211 304.788 512.122C304.528 507.615 299.955 504.037 295.403 504.781ZM326.179 513.263C324.825 513.582 322.938 514.675 321.986 515.691C315.292 522.836 325.781 533.297 333.159 526.835C339.345 521.416 334.181 511.374 326.179 513.263Z" fill="white"/>
</svg>
